# xmcd
#
# Track frame offsets:
#	150
#	7862
#	13159
#	35240
#	40275
#	45477
#	48940
#	54445
#	64200
#	71105
#	88490
#	95345
#	103280
#	109052
#	131212
#	139932
#	151585
#	156742
#	166860
#	181280
#	189067
#	200915
#	207395
#	211032
#	217715
#	232237
#
# Disc length: 3222 seconds
#
# Revision: 0
# Processed by: cddbd v1.5PL3 Copyright (c) Steve Scherf et al.
# Submitted via: dBpowerAMP V4.0
#
DISCID=7d0c941a
DTITLE=DeFord Bailey - Country Music's First Black Artist
DYEAR=1998
DGENRE=Country
TTITLE0=Pan American
TTITLE1=Ain't Gonna Rain No More
TTITLE2=Lost John
TTITLE3=Alcoholic Blues
TTITLE4=Cow Cow Blues
TTITLE5=John Henry
TTITLE6=Speech About Harps
TTITLE7=Old Hen Cackle (Take 1)
TTITLE8=Sweet Marie
TTITLE9=Black Man Blues
TTITLE10=Red River Valley
TTITLE11=Gotta See Momma Every Night
TTITLE12=Welcome Table
TTITLE13=Kansas City Blues
TTITLE14=Stove Pipe Blues
TTITLE15=Speech About Water And Harps
TTITLE16=Shoe Shine Boy
TTITLE17=Swing Low, Sweet Chariot
TTITLE18=Talk About Grandfather
TTITLE19=Hesitation Blues
TTITLE20=Old Hen Cackle (Take 2)
TTITLE21=Saints
TTITLE22=Don't Get Weary Children
TTITLE23=Sook Cow
TTITLE24=Down the Road A Piece
TTITLE25=Evening Prayer
EXTD=
EXTT0=
EXTT1=
EXTT2=
EXTT3=
EXTT4=
EXTT5=
EXTT6=
EXTT7=
EXTT8=
EXTT9=
EXTT10=
EXTT11=
EXTT12=
EXTT13=
EXTT14=
EXTT15=
EXTT16=
EXTT17=
EXTT18=
EXTT19=
EXTT20=
EXTT21=
EXTT22=
EXTT23=
EXTT24=
EXTT25=
PLAYORDER=
